Coordinates
version=1
nRows=32
nColumns=34
inDegrees=no

Units are S.I. units (second, meters, Newtons, ...)
If the header above contains a line with 'inDegrees', this indicates whether rotational values are in degrees (yes) or radians (no).

endheader
time	pelvis_tilt	pelvis_list	pelvis_rotation	pelvis_tx	pelvis_ty	pelvis_tz	hip_flexion_r	hip_adduction_r	hip_rotation_r	knee_angle_r	ankle_angle_r	subtalar_angle_r	mtp_angle_r	hip_flexion_l	hip_adduction_l	hip_rotation_l	knee_angle_l	ankle_angle_l	subtalar_angle_l	mtp_angle_l	lumbar_extension	lumbar_bending	lumbar_rotation	arm_flex_r	arm_add_r	arm_rot_r	elbow_flex_r	pro_sup_r	arm_flex_l	arm_add_l	arm_rot_l	elbow_flex_l	pro_sup_l
1.65	-0.361804	-0.0542084	0.0672924	-0.33239	0.555125	-0.584427	1.73534	-0.168087	-0.0343681	1.88943	0.566817	-0.125876	-0.143953	1.71213	-0.265351	0.0870152	1.91804	0.701317	0.17338	-0.14399	-0.79356	0.00895703	0.0128313	1.51508	-0.157888	0.29006	2.24642	1.29745	1.78333	-0.299519	0.488441	2.2208	1.97416
1.66	-0.359618	-0.0533799	0.0654596	-0.329586	0.56146	-0.584112	1.71528	-0.16586	-0.0382586	1.87369	0.562929	-0.126326	-0.143953	1.69232	-0.266367	0.0837677	1.90299	0.695166	0.168146	-0.143991	-0.782914	0.00754124	0.00931124	1.51143	-0.180072	0.278922	2.28067	1.29295	1.79115	-0.330464	0.498765	2.25311	1.95448
1.67	-0.357244	-0.0521264	0.0633403	-0.326785	0.568388	-0.583808	1.69354	-0.163947	-0.0423993	1.8558	0.558943	-0.126041	-0.143953	1.67086	-0.26742	0.0798516	1.88601	0.687597	0.163271	-0.143991	-0.770963	0.00560318	0.00561161	1.51257	-0.205612	0.26647	2.313	1.28978	1.80472	-0.363095	0.511277	2.28275	1.93565
1.68	-0.354756	-0.0505158	0.0609438	-0.32396	0.575885	-0.58351	1.67017	-0.162278	-0.0467951	1.83569	0.554844	-0.125091	-0.143954	1.64787	-0.268583	0.0751956	1.86709	0.678577	0.158671	-0.143991	-0.757587	0.00322006	0.00183787	1.51819	-0.233823	0.252778	2.34284	1.28702	1.82428	-0.396413	0.526127	2.30891	1.91762
1.69	-0.352204	-0.0486624	0.0582949	-0.321084	0.583934	-0.583221	1.64518	-0.160721	-0.0514509	1.81329	0.550583	-0.123623	-0.143954	1.62338	-0.269899	0.0697642	1.84617	0.668182	0.154184	-0.143992	-0.742674	0.000560108	-0.00194124	1.52773	-0.263866	0.238153	2.3696	1.28337	1.84977	-0.429588	0.543688	2.33085	1.90037
1.7	-0.34959	-0.0467075	0.0554519	-0.318124	0.592532	-0.582948	1.61849	-0.159119	-0.0563659	1.78852	0.546099	-0.121821	-0.143955	1.59735	-0.271372	0.0635541	1.8232	0.656606	0.149628	-0.143992	-0.726162	-0.00213495	-0.00573505	1.54047	-0.294804	0.223124	2.39277	1.27744	1.88101	-0.462003	0.564543	2.34794	1.88407
1.71	-0.346849	-0.0447985	0.0525137	-0.315049	0.60168	-0.582703	1.58995	-0.157338	-0.0615303	1.7613	0.541331	-0.119885	-0.143955	1.56965	-0.27296	0.0565852	1.79809	0.644131	0.144852	-0.143992	-0.708076	-0.00458386	-0.00966475	1.55564	-0.325667	0.208419	2.41195	1.2679	1.91775	-0.493275	0.589475	2.35971	1.86883
1.72	-0.343839	-0.0430647	0.0496143	-0.311829	0.611391	-0.582492	1.55931	-0.155297	-0.0669216	1.73161	0.536202	-0.118029	-0.143955	1.54003	-0.27458	0.048886	1.77076	0.631089	0.139758	-0.143993	-0.688549	-0.00651435	-0.0139726	1.57251	-0.355545	0.194928	2.42699	1.25344	1.95976	-0.523221	0.619448	2.36601	1.85404
1.73	-0.340361	-0.0415948	0.046909	-0.308421	0.621682	-0.582323	1.52636	-0.152978	-0.0724993	1.69947	0.530601	-0.11649	-0.143956	1.50825	-0.276126	0.0404818	1.74121	0.617795	0.134303	-0.143993	-0.667795	-0.00771909	-0.0189942	1.59049	-0.383725	0.183699	2.43797	1.23295	2.00685	-0.551775	0.655528	2.36703	1.83832
1.74	-0.336201	-0.0404185	0.0445553	-0.30478	0.632564	-0.582206	1.4909	-0.150427	-0.0782033	1.66502	0.524372	-0.115532	-0.143956	1.47408	-0.277476	0.0313851	1.70948	0.604486	0.128495	-0.143993	-0.646052	-0.00810585	-0.0250983	1.60911	-0.409842	0.175935	2.44524	1.20605	2.05881	-0.578865	0.698726	2.36321	1.82002
1.75	-0.331178	-0.0395009	0.0426935	-0.300861	0.644052	-0.582139	1.4529	-0.147746	-0.0839611	1.62848	0.517299	-0.115433	-0.143957	1.43741	-0.27852	0.021592	1.67571	0.591258	0.12238	-0.143994	-0.623509	-0.00773906	-0.0326047	1.62802	-0.43404	0.172982	2.44933	1.17335	2.11523	-0.604282	0.749806	2.35519	1.79775
1.76	-0.325175	-0.0387523	0.0414359	-0.296628	0.65616	-0.582105	1.41246	-0.145094	-0.0897062	1.59013	0.509114	-0.116442	-0.143957	1.39828	-0.279162	0.0110869	1.64007	0.578028	0.11606	-0.143994	-0.600258	-0.00686324	-0.0416935	1.64687	-0.457078	0.17628	2.45094	1.13649	2.17542	-0.627583	0.809079	2.34365	1.77085
1.77	-0.318154	-0.0380376	0.040869	-0.292044	0.668912	-0.582077	1.36978	-0.142682	-0.0954081	1.55023	0.499507	-0.118716	-0.143957	1.3568	-0.279325	-0.000139693	1.60269	0.564513	0.109702	-0.143994	-0.576286	-0.00588841	-0.0523223	1.66519	-0.480356	0.187233	2.4509	1.09798	2.23817	-0.648074	0.876236	2.32926	1.73965
1.78	-0.310157	-0.0371841	0.0410628	-0.287083	0.68235	-0.582024	1.32508	-0.140769	-0.101104	1.50891	0.488123	-0.122225	-0.143958	1.31312	-0.278906	-0.0120642	1.5635	0.550207	0.103541	-0.143995	-0.551512	-0.00533666	-0.0641763	1.68215	-0.505831	0.206991	2.45011	1.06087	2.30166	-0.664895	0.950258	2.31263	1.70569
1.79	-0.301282	-0.0359906	0.0420806	-0.281728	0.696541	-0.581924	1.27849	-0.139656	-0.106928	1.46603	0.47453	-0.126648	-0.143958	1.26724	-0.277735	-0.024601	1.52208	0.534335	0.0978544	-0.143995	-0.525823	-0.00576728	-0.0766631	1.69637	-0.535805	0.236112	2.44955	1.0282	2.36347	-0.677207	1.02947	2.29435	1.6714
1.8	-0.291682	-0.0342376	0.0439821	-0.275974	0.711591	-0.581769	1.2299	-0.139654	-0.113138	1.42098	0.458149	-0.131295	-0.143959	1.21896	-0.275521	-0.0375844	1.47745	0.515775	0.0929134	-0.143995	-0.499133	-0.00769269	-0.0889591	1.70556	-0.572579	0.274169	2.45023	1.00207	2.42067	-0.684448	1.11174	2.2751	1.63929
1.81	-0.281548	-0.0317009	0.0468177	-0.269829	0.727634	-0.58157	1.1789	-0.141043	-0.120126	1.37256	0.438141	-0.135057	-0.143959	1.16775	-0.271814	-0.0507663	1.42795	0.492974	0.0888979	-0.143996	-0.471419	-0.011492	-0.100101	1.70637	-0.618026	0.319386	2.45313	0.983398	2.47007	-0.686601	1.19474	2.2558	1.61156
1.82	-0.271083	-0.0281692	0.050616	-0.263314	0.744833	-0.581359	1.12474	-0.14402	-0.128408	1.31891	0.413312	-0.136452	-0.143959	1.11275	-0.26599	-0.0638365	1.37125	0.463896	0.0857992	-0.143996	-0.442758	-0.017346	-0.109104	1.69426	-0.673145	0.368419	2.45901	0.971831	2.50851	-0.684387	1.2762	2.23757	1.58986
1.83	-0.26048	-0.0234511	0.055373	-0.256464	0.763355	-0.581185	1.06642	-0.148633	-0.138584	1.25761	0.382054	-0.133776	-0.14396	1.05286	-0.257288	-0.0764775	1.30449	0.426085	0.0833322	-0.143996	-0.413322	-0.0252185	-0.115072	1.66366	-0.737714	0.416394	2.46815	0.966096	2.53317	-0.679278	1.35421	2.22164	1.57534
1.84	-0.249914	-0.017358	0.0610265	-0.249312	0.783328	-0.581109	1.00286	-0.15473	-0.151274	1.18601	0.342398	-0.125374	-0.14396	0.986938	-0.244913	-0.0884611	1.22474	0.376873	0.0808884	-0.143997	-0.383338	-0.0348712	-0.117272	1.60835	-0.810109	0.457239	2.48008	0.964461	2.54177	-0.673281	1.42722	2.20908	1.56866
1.85	-0.239517	-0.00974209	0.0674268	-0.241904	0.804803	-0.581192	0.933163	-0.161928	-0.167055	1.10172	0.292201	-0.109991	-0.143961	0.914093	-0.228197	-0.099786	1.12957	0.313791	0.0775373	-0.143997	-0.353034	-0.0459268	-0.115173	1.52228	-0.887349	0.48435	2.49334	0.965302	2.53256	-0.668589	1.49401	2.20043	1.57004
1.86	-0.229361	-0.000550816	0.0743197	-0.234298	0.827729	-0.581485	0.856907	-0.169631	-0.186408	1.0031	0.229482	-0.0871512	-0.143961	0.833997	-0.206777	-0.110822	1.01773	0.235124	0.072076	-0.143997	-0.322626	-0.0579192	-0.108487	1.4006	-0.965347	0.49154	2.50546	0.967565	2.50436	-0.667196	1.5534	2.19559	1.57916
1.87	-0.219471	0.0101187	0.0813443	-0.226583	0.851946	-0.582027	0.774398	-0.177085	-0.209685	0.889853	0.152912	-0.0574886	-0.143961	0.747166	-0.180756	-0.122425	0.88979	0.140589	0.0631422	-0.143998	-0.292343	-0.070316	-0.097234	1.24108	-1.03931	0.474231	2.51315	0.97088	2.45658	-0.670633	1.60408	2.19378	1.5951
1.88	-0.209871	0.0219905	0.088051	-0.218888	0.877169	-0.582841	0.686882	-0.183496	-0.23705	0.763555	0.0623997	-0.0229525	-0.143962	0.655171	-0.150808	-0.135962	0.748663	0.0319643	0.0494237	-0.143998	-0.262441	-0.0825147	-0.0818265	1.04548	-1.10425	0.43074	2.51264	0.975609	2.38922	-0.679866	1.64444	2.19381	1.61622
1.89	-0.20062	0.0346084	0.0939462	-0.211372	0.903014	-0.58392	0.59667	-0.188156	-0.268422	0.627957	-0.0403459	0.0132001	-0.143962	0.560732	-0.118206	-0.153184	0.599824	-0.0865031	0.0299538	-0.143998	-0.233191	-0.093838	-0.0631143	0.820517	-1.15566	0.363342	2.50023	0.982774	2.30276	-0.6953	1.67256	2.19436	1.64018
1.9	-0.191805	0.047314	0.0985442	-0.204189	0.929031	-0.585212	0.507083	-0.190588	-0.303403	0.489042	-0.151479	0.0466923	-0.143963	0.467608	-0.0847339	-0.175886	0.451076	-0.2082	0.00444496	-0.143999	-0.204857	-0.103564	-0.042352	0.578016	-1.1902	0.278624	2.47273	0.993889	2.19807	-0.716819	1.68623	2.19431	1.66432
1.91	-0.183554	0.0592829	0.10145	-0.197454	0.95473	-0.586622	0.422153	-0.190631	-0.341211	0.354618	-0.265122	0.0728342	-0.143963	0.380215	-0.0524918	-0.205328	0.311757	-0.324986	-0.0264237	-0.143999	-0.177719	-0.110978	-0.0210704	0.33365	-1.20627	0.186697	2.42795	1.01066	2.07619	-0.743803	1.68309	2.19283	1.68625
1.92	-0.176079	0.0696779	0.102407	-0.191258	0.979623	-0.588041	0.346068	-0.188444	-0.380592	0.233408	-0.37413	0.0874209	-0.143963	0.302976	-0.0236109	-0.241504	0.191365	-0.428793	-0.06086	-0.143999	-0.152174	-0.115416	-0.000911342	0.104408	-1.20434	0.0992341	2.365	1.03443	1.93832	-0.775113	1.66081	2.18943	1.70425
1.93	-0.169542	0.0777616	0.101339	-0.185744	1.00335	-0.589375	0.282489	-0.18446	-0.419724	0.13369	-0.471481	0.0877681	-0.143964	0.239532	9.31669e-05	-0.282499	0.097842	-0.513542	-0.0960371	-0.144	-0.128772	-0.116388	0.0165791	-0.0945233	-1.1867	0.0269602	2.28442	1.06548	1.78577	-0.809095	1.61745	2.18392	1.71736
1.94	-0.163945	0.0830287	0.09835	-0.181092	1.02583	-0.590519	0.23385	-0.179279	-0.45618	0.0617866	-0.551893	0.0735806	-0.143964	0.192001	0.0174038	-0.324361	0.0360678	-0.576481	-0.128398	-0.144	-0.108283	-0.113692	0.0301476	-0.252336	-1.15689	-0.0224506	2.18809	1.10238	1.62019	-0.843608	1.55185	2.17624	1.72523
1.95	-0.159028	0.0853251	0.0936966	-0.177437	1.0472	-0.591411	0.2009	-0.173581	-0.487114	0.0209541	-0.612871	0.0472862	-0.143965	0.160647	0.0278599	-0.361884	0.00727578	-0.618177	-0.154103	-0.144	-0.0917012	-0.107493	0.0389805	-0.363921	-1.11891	-0.0454496	2.07893	1.14192	1.44385	-0.87611	1.46415	2.16631	1.72806
1.96	-0.154203	0.0848961	0.087734	-0.174878	1.06759	-0.592013	0.182643	-0.168083	-0.50975	0.0111052	-0.654764	0.0135721	-0.143965	0.144041	0.0317514	-0.390115	0.00937677	-0.641417	-0.16965	-0.144001	-0.0802438	-0.0983474	0.0428145	-0.429902	-1.07646	-0.0426642	1.96051	1.18006	1.25991	-0.903804	1.3562	2.15378	1.72648
